<?xml version="1.0" encoding="UTF-8" standalone="no"?>
<!-- Created with Inkscape (http://www.inkscape.org/) -->

<svg
   xmlns:dc="http://purl.org/dc/elements/1.1/"
   xmlns:cc="http://creativecommons.org/ns#"
   xmlns:rdf="http://www.w3.org/1999/02/22-rdf-syntax-ns#"
   xmlns:svg="http://www.w3.org/2000/svg"
   xmlns="http://www.w3.org/2000/svg"
   version="1.1"
   width="200.02699"
   height="173.963"
   viewBox="0 0 200.02699 173.963"
   id="Capa_1"
   xml:space="preserve"><metadata
     id="metadata19"><rdf:RDF><cc:Work
         rdf:about=""><dc:format>image/svg+xml</dc:format><dc:type
           rdf:resource="http://purl.org/dc/dcmitype/StillImage" /><dc:title></dc:title></cc:Work></rdf:RDF></metadata><defs
     id="defs17" /><path
     d="M 192.589,0 H 7.438 C 3.33,0 0,3.33 0,7.438 V 34.017 39.04 H 200.027 V 34.017 7.437 C 200.027,3.33 196.697,0 192.589,0 z"
     id="path3"
     style="fill:#eef0f1" /><circle
     cx="53.433998"
     cy="61.75"
     r="7.244"
     transform="translate(-30.493,-42.625)"
     id="circle5"
     style="fill:#ed727b" /><circle
     cx="75.57"
     cy="61.75"
     r="7.244"
     transform="translate(-30.493,-42.625)"
     id="circle7"
     style="fill:#eeba3b" /><circle
     cx="96.498001"
     cy="61.75"
     r="7.244"
     transform="translate(-30.493,-42.625)"
     id="circle9"
     style="fill:#b592c4" /><rect
     width="200.02699"
     height="8.4519997"
     x="3.051758e-08"
     y="39.039001"
     id="rect11"
     style="fill:#373737" /><path
     d="m 0,47.491 v 87.432 5.023 26.579 c 0,4.108 3.33,7.438 7.438,7.438 h 185.151 c 4.108,0 7.438,-3.33 7.438,-7.438 V 139.946 134.923 47.491 H 0 z m 94.759,55.19 -27.616,27.616 -9.391,-9.391 18.256,-18.256 -18.256,-18.256 9.391,-9.391 27.616,27.616 -0.031,0.031 0.031,0.031 z m 50.509,27.616 h -41.051 v -13.281 h 41.052 v 13.281 z"
     id="path13"
     style="fill:#454545" /></svg>